<svg xmlns="http://www.w3.org/2000/svg" viewBox="0 0 1024 1024">
    <path d="M 155,150 Q 370 70 650 80 L 575 155 Q 375 155 255 210 Q 252 250 266 326 L 170 380 Q 150 260 155 150" fill="#1a1a1a" />
    <path d="M 33,485 Q 300 410 428 230 Q 530 240 600 180 Q 760 30 858 0 Q 880 30 876 92 L 922 175 Q 900 290 912 324 L 996 318 Q 978 360 976 420 Q 794 570 780 730 Q 850 665 945 530 Q 870 795 652 975 Q 650 620 888 426 Q 908 410 910 368 Q 870 385 855 398 L 843 352 Q 820 385 816 408 Q 750 458 720 508 Q 700 390 826 250 L 830 158 L 775 136 Q 505 445 532 666 Q 570 592 590 592 Q 515 750 576 1024 Q 355 890 255 660 L 348 630 Q 370 690 402 730 Q 385 580 398 465 L 417 367 Q 455 355 505 363 L 571 298 Q 550 310 480 304 L 417 367 L 398 465 Q 325 520 226 519 Q 300 565 365 580 Q 178 656 33 485" fill="#1a1a1a" />
</svg>